<svg xmlns="http://www.w3.org/2000/svg" version="1.1" xmlns:xlink="http://www.w3.org/1999/xlink" xmlns:svgjs="http://svgjs.dev/svgjs" width="1000" height="1000" viewBox="0 0 1000 1000"><rect width="1000" height="1000" fill="#ffffff"></rect><g transform="matrix(0.2664636467453369,0,0,0.2664636467453369,366.2967548319527,150.28340080971657)"><svg viewBox="0 0 94 247" data-background-color="#ffffff" preserveAspectRatio="xMidYMid meet" height="2627" width="1000" xmlns="http://www.w3.org/2000/svg" xmlns:xlink="http://www.w3.org/1999/xlink"><g id="tight-bounds" transform="matrix(1,0,0,1,0.1663027932960972,-0.09999999999999432)"><svg viewBox="0 0 93.6673944134078 247.2" height="247.2" width="93.6673944134078"><g><svg></svg></g><g><svg viewBox="0 0 93.6673944134078 247.2" height="247.2" width="93.6673944134078"><g transform="matrix(1,0,0,1,0,47.21520000000001)"><svg viewBox="0 0 93.6673944134078 152.76959999999997" height="152.76959999999997" width="93.6673944134078"><g><svg viewBox="0 0 93.6673944134078 152.76959999999997" height="152.76959999999997" width="93.6673944134078"><g><svg viewBox="0 0 93.6673944134078 152.76959999999997" height="152.76959999999997" width="93.6673944134078"><g><svg viewBox="0 0 93.6673944134078 152.76959999999997" height="152.76959999999997" width="93.6673944134078"><g><svg viewBox="0 0 93.6673944134078 152.76959999999997" height="152.76959999999997" width="93.6673944134078"><g><svg viewBox="0 0 93.6673944134078 152.76959999999997" height="152.76959999999997" width="93.6673944134078"><g transform="matrix(1,0,0,1,0,0)"><svg width="93.6673944134078" viewBox="2.75 -35.5 21.950000762939453 35.79999923706055" height="152.76959999999997" data-palette-color="#919591"><path d="M22.15-33.75L22.15-33.75 21.35-30.4 18.45-31.25Q15.35-32 13.1-32L13.1-32Q7.2-32 7.2-26.75L7.2-26.75Q7.2-24.45 9-22.98 10.8-21.5 13.38-20.63 15.95-19.75 18.53-18.73 21.1-17.7 22.9-15.58 24.7-13.45 24.7-10.2L24.7-10.2Q24.7-5.25 21.65-2.48 18.6 0.3 13 0.3L13 0.3Q10.2 0.3 7.38-0.53 4.55-1.35 2.75-2.45L2.75-2.45 4-5.3Q8.55-3.2 12.63-3.2 16.7-3.2 18.82-4.85 20.95-6.5 20.95-9.65L20.95-9.65Q20.95-12.85 17.5-14.65L17.5-14.65Q15.95-15.45 14.08-16.15 12.2-16.85 10.33-17.68 8.45-18.5 6.93-19.55 5.4-20.6 4.42-22.4 3.45-24.2 3.45-26.6L3.45-26.6Q3.45-30.9 6.03-33.2 8.6-35.5 12.95-35.5 17.3-35.5 22.15-33.75Z" opacity="1" transform="matrix(1,0,0,1,0,0)" fill="#000000" class="undefined-text-0" data-fill-palette-color="primary" id="text-0"></path></svg></g></svg></g></svg></g></svg></g><g></g></svg></g></svg></g></svg></g><path d="M0 41.215L0 1 93.667 1 93.667 41.215 79.89 41.215 79.89 14.777 13.777 14.777 13.777 41.215 0 41.215M0 205.985L0 246.2 93.667 246.2 93.667 205.985 79.89 205.985 79.89 232.423 13.777 232.423 13.777 205.985 0 205.985" fill="#000000" stroke="transparent" data-fill-palette-color="primary"></path></svg></g><defs></defs></svg><rect width="93.6673944134078" height="247.2" fill="none" stroke="none" visibility="hidden"></rect></g></svg></g></svg>